<svg width="216" height="34" viewBox="0 0 216 34" fill="none" xmlns="http://www.w3.org/2000/svg">
<path d="M59.58 26.8721L56.076 20.5121H55.092V26.8721H50.988V10.0241H57.876C59.204 10.0241 60.332 10.2561 61.26 10.7201C62.204 11.1841 62.908 11.8241 63.372 12.6401C63.836 13.4401 64.068 14.3361 64.068 15.3281C64.068 16.4481 63.748 17.4481 63.108 18.3281C62.484 19.2081 61.556 19.8321 60.324 20.2001L64.212 26.8721H59.58ZM55.092 17.6081H57.636C58.388 17.6081 58.948 17.4241 59.316 17.0561C59.7 16.6881 59.892 16.1681 59.892 15.4961C59.892 14.8561 59.7 14.3521 59.316 13.9841C58.948 13.6161 58.388 13.4321 57.636 13.4321H55.092V17.6081ZM79.2682 19.9601C79.2682 20.3441 79.2443 20.7441 79.1963 21.1601H69.9083C69.9723 21.9921 70.2363 22.6321 70.7003 23.0801C71.1803 23.5121 71.7643 23.7281 72.4523 23.7281C73.4763 23.7281 74.1883 23.2961 74.5883 22.4321H78.9563C78.7323 23.3121 78.3243 24.1041 77.7323 24.8081C77.1563 25.5121 76.4283 26.0641 75.5483 26.4641C74.6683 26.8641 73.6843 27.0641 72.5963 27.0641C71.2843 27.0641 70.1163 26.7841 69.0923 26.2241C68.0683 25.6641 67.2683 24.8641 66.6923 23.8241C66.1163 22.7841 65.8283 21.5681 65.8283 20.1761C65.8283 18.7841 66.1083 17.5681 66.6683 16.5281C67.2443 15.4881 68.0443 14.6881 69.0683 14.1281C70.0923 13.5681 71.2683 13.2881 72.5963 13.2881C73.8923 13.2881 75.0443 13.5601 76.0523 14.1041C77.0603 14.6481 77.8443 15.4241 78.4043 16.4321C78.9803 17.4401 79.2682 18.6161 79.2682 19.9601ZM75.0683 18.8801C75.0683 18.1761 74.8283 17.6161 74.3483 17.2001C73.8683 16.7841 73.2683 16.5761 72.5483 16.5761C71.8603 16.5761 71.2763 16.7761 70.7963 17.1761C70.3323 17.5761 70.0443 18.1441 69.9323 18.8801H75.0683ZM96.4136 13.3361C97.9816 13.3361 99.2296 13.8481 100.158 14.8721C101.102 15.8801 101.574 17.2721 101.574 19.0481V26.8721H97.4936V19.6001C97.4936 18.7041 97.2616 18.0081 96.7976 17.5121C96.3336 17.0161 95.7096 16.7681 94.9256 16.7681C94.1416 16.7681 93.5176 17.0161 93.0536 17.5121C92.5896 18.0081 92.3576 18.7041 92.3576 19.6001V26.8721H88.2536V13.4801H92.3576V15.2561C92.7736 14.6641 93.3336 14.2001 94.0376 13.8641C94.7416 13.5121 95.5336 13.3361 96.4136 13.3361ZM103.61 20.1521C103.61 18.7761 103.866 17.5681 104.378 16.5281C104.906 15.4881 105.618 14.6881 106.514 14.1281C107.41 13.5681 108.41 13.2881 109.514 13.2881C110.458 13.2881 111.282 13.4801 111.986 13.8641C112.706 14.2481 113.258 14.7521 113.642 15.3761V13.4801H117.746V26.8721H113.642V24.9761C113.242 25.6001 112.682 26.1041 111.962 26.4881C111.258 26.8721 110.434 27.0641 109.49 27.0641C108.402 27.0641 107.41 26.7841 106.514 26.2241C105.618 25.6481 104.906 24.8401 104.378 23.8001C103.866 22.7441 103.61 21.5281 103.61 20.1521ZM113.642 20.1761C113.642 19.1521 113.354 18.3441 112.778 17.7521C112.218 17.1601 111.53 16.8641 110.714 16.8641C109.898 16.8641 109.202 17.1601 108.626 17.7521C108.066 18.3281 107.786 19.1281 107.786 20.1521C107.786 21.1761 108.066 21.9921 108.626 22.6001C109.202 23.1921 109.898 23.4881 110.714 23.4881C111.53 23.4881 112.218 23.1921 112.778 22.6001C113.354 22.0081 113.642 21.2001 113.642 20.1761ZM122.779 12.0881C122.059 12.0881 121.467 11.8801 121.003 11.4641C120.555 11.0321 120.331 10.5041 120.331 9.88013C120.331 9.24013 120.555 8.71213 121.003 8.29613C121.467 7.86413 122.059 7.64813 122.779 7.64813C123.483 7.64813 124.059 7.86413 124.507 8.29613C124.971 8.71213 125.203 9.24013 125.203 9.88013C125.203 10.5041 124.971 11.0321 124.507 11.4641C124.059 11.8801 123.483 12.0881 122.779 12.0881ZM124.819 13.4801V26.8721H120.715V13.4801H124.819ZM133.241 27.0641C132.073 27.0641 131.033 26.8641 130.121 26.4641C129.209 26.0641 128.489 25.5201 127.961 24.8321C127.433 24.1281 127.137 23.3441 127.073 22.4801H131.129C131.177 22.9441 131.393 23.3201 131.777 23.6081C132.161 23.8961 132.633 24.0401 133.193 24.0401C133.705 24.0401 134.097 23.9441 134.369 23.7521C134.657 23.5441 134.801 23.2801 134.801 22.9601C134.801 22.5761 134.601 22.2961 134.201 22.1201C133.801 21.9281 133.153 21.7201 132.257 21.4961C131.297 21.2721 130.497 21.0401 129.857 20.8001C129.217 20.5441 128.665 20.1521 128.201 19.6241C127.737 19.0801 127.505 18.3521 127.505 17.4401C127.505 16.6721 127.713 15.9761 128.129 15.3521C128.561 14.7121 129.185 14.2081 130.001 13.8401C130.833 13.4721 131.817 13.2881 132.953 13.2881C134.633 13.2881 135.953 13.7041 136.913 14.5361C137.889 15.3681 138.449 16.4721 138.593 17.8481H134.801C134.737 17.3841 134.529 17.0161 134.177 16.7441C133.841 16.4721 133.393 16.3361 132.833 16.3361C132.353 16.3361 131.985 16.4321 131.729 16.6241C131.473 16.8001 131.345 17.0481 131.345 17.3681C131.345 17.7521 131.545 18.0401 131.945 18.2321C132.361 18.4241 133.001 18.6161 133.865 18.8081C134.857 19.0641 135.665 19.3201 136.289 19.5761C136.913 19.8161 137.457 20.2161 137.921 20.7761C138.401 21.3201 138.649 22.0561 138.665 22.9841C138.665 23.7681 138.441 24.4721 137.993 25.0961C137.561 25.7041 136.929 26.1841 136.097 26.5361C135.281 26.8881 134.329 27.0641 133.241 27.0641ZM146.624 27.0641C145.456 27.0641 144.416 26.8641 143.504 26.4641C142.592 26.0641 141.872 25.5201 141.344 24.8321C140.816 24.1281 140.52 23.3441 140.456 22.4801H144.512C144.56 22.9441 144.776 23.3201 145.16 23.6081C145.544 23.8961 146.016 24.0401 146.576 24.0401C147.088 24.0401 147.48 23.9441 147.752 23.7521C148.04 23.5441 148.184 23.2801 148.184 22.9601C148.184 22.5761 147.984 22.2961 147.584 22.1201C147.184 21.9281 146.536 21.7201 145.64 21.4961C144.68 21.2721 143.88 21.0401 143.24 20.8001C142.6 20.5441 142.048 20.1521 141.584 19.6241C141.12 19.0801 140.888 18.3521 140.888 17.4401C140.888 16.6721 141.096 15.9761 141.512 15.3521C141.944 14.7121 142.568 14.2081 143.384 13.8401C144.216 13.4721 145.2 13.2881 146.336 13.2881C148.016 13.2881 149.336 13.7041 150.296 14.5361C151.272 15.3681 151.832 16.4721 151.976 17.8481H148.184C148.12 17.3841 147.912 17.0161 147.56 16.7441C147.224 16.4721 146.776 16.3361 146.216 16.3361C145.736 16.3361 145.368 16.4321 145.112 16.6241C144.856 16.8001 144.728 17.0481 144.728 17.3681C144.728 17.7521 144.928 18.0401 145.328 18.2321C145.744 18.4241 146.384 18.6161 147.248 18.8081C148.24 19.0641 149.048 19.3201 149.672 19.5761C150.296 19.8161 150.84 20.2161 151.304 20.7761C151.784 21.3201 152.032 22.0561 152.048 22.9841C152.048 23.7681 151.824 24.4721 151.376 25.0961C150.944 25.7041 150.312 26.1841 149.48 26.5361C148.664 26.8881 147.712 27.0641 146.624 27.0641ZM153.742 20.1521C153.742 18.7761 153.998 17.5681 154.51 16.5281C155.038 15.4881 155.75 14.6881 156.646 14.1281C157.542 13.5681 158.542 13.2881 159.646 13.2881C160.59 13.2881 161.414 13.4801 162.118 13.8641C162.838 14.2481 163.39 14.7521 163.774 15.3761V13.4801H167.878V26.8721H163.774V24.9761C163.374 25.6001 162.814 26.1041 162.094 26.4881C161.39 26.8721 160.566 27.0641 159.622 27.0641C158.534 27.0641 157.542 26.7841 156.646 26.2241C155.75 25.6481 155.038 24.8401 154.51 23.8001C153.998 22.7441 153.742 21.5281 153.742 20.1521ZM163.774 20.1761C163.774 19.1521 163.486 18.3441 162.91 17.7521C162.35 17.1601 161.662 16.8641 160.846 16.8641C160.03 16.8641 159.334 17.1601 158.758 17.7521C158.198 18.3281 157.918 19.1281 157.918 20.1521C157.918 21.1761 158.198 21.9921 158.758 22.6001C159.334 23.1921 160.03 23.4881 160.846 23.4881C161.662 23.4881 162.35 23.1921 162.91 22.6001C163.486 22.0081 163.774 21.2001 163.774 20.1761ZM179.007 13.3361C180.575 13.3361 181.823 13.8481 182.751 14.8721C183.695 15.8801 184.167 17.2721 184.167 19.0481V26.8721H180.087V19.6001C180.087 18.7041 179.855 18.0081 179.391 17.5121C178.927 17.0161 178.303 16.7681 177.519 16.7681C176.735 16.7681 176.111 17.0161 175.647 17.5121C175.183 18.0081 174.951 18.7041 174.951 19.6001V26.8721H170.847V13.4801H174.951V15.2561C175.367 14.6641 175.927 14.2001 176.631 13.8641C177.335 13.5121 178.127 13.3361 179.007 13.3361ZM186.203 20.1761C186.203 18.7841 186.483 17.5681 187.043 16.5281C187.619 15.4881 188.411 14.6881 189.419 14.1281C190.443 13.5681 191.611 13.2881 192.923 13.2881C194.603 13.2881 196.003 13.7281 197.123 14.6081C198.259 15.4881 199.003 16.7281 199.355 18.3281H194.987C194.619 17.3041 193.907 16.7921 192.851 16.7921C192.099 16.7921 191.499 17.0881 191.051 17.6801C190.603 18.2561 190.379 19.0881 190.379 20.1761C190.379 21.2641 190.603 22.1041 191.051 22.6961C191.499 23.2721 192.099 23.5601 192.851 23.5601C193.907 23.5601 194.619 23.0481 194.987 22.0241H199.355C199.003 23.5921 198.259 24.8241 197.123 25.7201C195.987 26.6161 194.587 27.0641 192.923 27.0641C191.611 27.0641 190.443 26.7841 189.419 26.2241C188.411 25.6641 187.619 24.8641 187.043 23.8241C186.483 22.7841 186.203 21.5681 186.203 20.1761ZM214.174 19.9601C214.174 20.3441 214.151 20.7441 214.103 21.1601H204.815C204.879 21.9921 205.143 22.6321 205.607 23.0801C206.087 23.5121 206.671 23.7281 207.359 23.7281C208.383 23.7281 209.095 23.2961 209.495 22.4321H213.863C213.639 23.3121 213.231 24.1041 212.639 24.8081C212.063 25.5121 211.335 26.0641 210.455 26.4641C209.575 26.8641 208.591 27.0641 207.503 27.0641C206.191 27.0641 205.023 26.7841 203.999 26.2241C202.975 25.6641 202.175 24.8641 201.599 23.8241C201.023 22.7841 200.735 21.5681 200.735 20.1761C200.735 18.7841 201.015 17.5681 201.575 16.5281C202.151 15.4881 202.951 14.6881 203.975 14.1281C204.999 13.5681 206.175 13.2881 207.503 13.2881C208.799 13.2881 209.951 13.5601 210.959 14.1041C211.967 14.6481 212.751 15.4241 213.311 16.4321C213.887 17.4401 214.174 18.6161 214.174 19.9601ZM209.975 18.8801C209.975 18.1761 209.735 17.6161 209.255 17.2001C208.775 16.7841 208.175 16.5761 207.455 16.5761C206.767 16.5761 206.183 16.7761 205.703 17.1761C205.239 17.5761 204.951 18.1441 204.839 18.8801H209.975Z" fill="white"/>
<path d="M83.3533 27.0641C82.6333 27.0641 82.0413 26.8561 81.5773 26.4401C81.1293 26.0081 80.9053 25.4801 80.9053 24.8561C80.9053 24.2161 81.1293 23.6801 81.5773 23.2481C82.0413 22.8161 82.6333 22.6001 83.3533 22.6001C84.0573 22.6001 84.6333 22.8161 85.0813 23.2481C85.5453 23.6801 85.7773 24.2161 85.7773 24.8561C85.7773 25.4801 85.5453 26.0081 85.0813 26.4401C84.6333 26.8561 84.0573 27.0641 83.3533 27.0641ZM83.3533 17.2961C82.6333 17.2961 82.0413 17.0881 81.5773 16.6721C81.1293 16.2401 80.9053 15.7121 80.9053 15.0881C80.9053 14.4481 81.1293 13.9121 81.5773 13.4801C82.0413 13.0481 82.6333 12.8321 83.3533 12.8321C84.0573 12.8321 84.6333 13.0481 85.0813 13.4801C85.5453 13.9121 85.7773 14.4481 85.7773 15.0881C85.7773 15.7121 85.5453 16.2401 85.0813 16.6721C84.6333 17.0881 84.0573 17.2961 83.3533 17.2961Z" fill="#FF8A57"/>
<path d="M26.4629 25.4285H8.55371C8.55371 11.4047 17.5083 2.13684 17.5083 2.13684C17.5083 2.13684 26.4629 11.4047 26.4629 25.4285Z" fill="url(#paint0_linear_6940_149846)" stroke="white" stroke-width="2" stroke-miterlimit="10"/>
<path d="M22.4167 32.3568C22.4167 32.3568 32.9461 30.0338 33.4998 20.5443C33.4998 20.5347 33.4998 20.5274 33.4998 20.5178V7.18867C33.4998 6.95275 33.2759 6.78424 33.0496 6.84683C30.1248 7.68216 13.7841 13.0793 8.88049 30.5682C8.83716 30.7223 8.90216 30.886 9.03937 30.9678C10.0601 31.5865 14.4967 33.8638 22.4167 32.3568Z" fill="url(#paint1_linear_6940_149846)" stroke="white" stroke-width="2" stroke-miterlimit="10"/>
<path d="M12.5831 32.3568C12.5831 32.3568 2.05368 30.0338 1.5 20.5443C1.5 20.5347 1.5 20.5274 1.5 20.5178V7.18867C1.5 6.95275 1.72388 6.78424 1.95016 6.84683C4.87501 7.68216 21.2157 13.0793 26.1193 30.5682C26.1626 30.7223 26.0976 30.886 25.9604 30.9678C24.9397 31.5865 20.5031 33.8638 12.5831 32.3568Z" fill="url(#paint2_linear_6940_149846)" stroke="white" stroke-width="2" stroke-miterlimit="10"/>
<defs>
<linearGradient id="paint0_linear_6940_149846" x1="28.5426" y1="20.9465" x2="10.9551" y2="12.7837" gradientUnits="userSpaceOnUse">
<stop offset="0.2053" stop-color="#F68A5A"/>
<stop offset="0.7311" stop-color="#F1605A"/>
</linearGradient>
<linearGradient id="paint1_linear_6940_149846" x1="66.7843" y1="40.6782" x2="-7.49763" y2="5.27968" gradientUnits="userSpaceOnUse">
<stop offset="0.2053" stop-color="#F68A5A"/>
<stop offset="0.7311" stop-color="#F1605A"/>
</linearGradient>
<linearGradient id="paint2_linear_6940_149846" x1="-5.08383" y1="14.2677" x2="21.4045" y2="25.6746" gradientUnits="userSpaceOnUse">
<stop offset="0.2509" stop-color="#F68A5A"/>
<stop offset="0.7312" stop-color="#F1605A"/>
<stop offset="0.7354" stop-color="#F1605A"/>
</linearGradient>
</defs>
</svg>
